:SAMPLES-PER-SECOND 30
:FULLY-SPECIFIED
:DEGREES
1241
root  45.9907 32.8256 1.57712 126.506 87.6535 126.059
RightUpLeg  -43.0183 0.893101 -10.9365
RightLeg  59.6963 3.78138 6.48007
RightFoot  -17.8508 0.0941388 3.78799
RightToes  6.35927e-011 1.30204e-014 -6.03759e-014
Spine  39.667 -3.42609 13.113
Spine1  -8.78787 2.72774 -17.2306
HEad  -54.8246 -7.17608 -0.228398
LeftShoulder1  2.86521 -13.1963 -9.83832
LeftArm  -38.8758 -60.1286 -39.9986
LeftForeArm  -16.6122 -31.5275 -7.81052
LeftHand  -0.135502 2.85113 5.66355
RightShoulder  1.59507 6.49634 8.52534
RightArm  -39.3951 58.1749 19.756
RightForeArm  -50.6782 14.5376 -0.230085
RightHand  -1.68511 19.4852 -8.29993
LeftUpLeg  -45.6608 2.98623 2.88796
LeftLeg  54.5309 -3.93421 -5.42839
LeftFoot  -9.15139 0.0535398 0.105854
LeftToes  -7.16024e-010 4.79583e-011 -5.98286e-011
1242
root  46.123 32.2039 1.81651 137.357 87.141 137.283
RightUpLeg  -44.4746 0.599385 -10.6894
RightLeg  63.6693 3.02471 6.06804
RightFoot  -19.026 0.0591432 2.79596
RightToes  6.35927e-011 1.30204e-014 -6.03759e-014
Spine  39.5152 -3.20126 12.4462
Spine1  -6.80865 2.80174 -15.3367
HEad  -54.9942 -5.89544 -0.765654
LeftShoulder1  3.15705 -11.7054 -13.8239
LeftArm  -30.8136 -55.2033 -43.9539
LeftForeArm  -21.2952 -37.364 -9.6964
LeftHand  -0.16236 2.31261 5.77976
RightShoulder  1.72079 5.618 11.8024
RightArm  -41.768 55.2154 26.0647
RightForeArm  -40.5078 22.9493 5.70926
RightHand  -2.19789 22.3498 -9.56802
LeftUpLeg  -47.2991 2.45753 3.38213
LeftLeg  58.1603 -3.74598 -5.94943
LeftFoot  -10.7228 0.0700091 -0.141598
LeftToes  -7.16024e-010 4.79583e-011 -5.98286e-011
1243
root  46.2381 31.5372 2.04588 147.346 86.5622 147.968
RightUpLeg  -45.5269 0.386075 -10.3583
RightLeg  67.5715 2.3822 5.66505
RightFoot  -20.5291 0.0562717 2.42425
RightToes  6.35927e-011 1.30204e-014 -6.03759e-014
Spine  39.7149 -3.12461 12.0953
Spine1  -4.68397 2.90118 -13.7602
HEad  -54.8976 -5.04193 -1.44807
LeftShoulder1  3.37306 -10.3223 -17.7756
LeftArm  -24.8376 -50.1707 -45.744
LeftForeArm  -25.1105 -41.1567 -11.1755
LeftHand  -0.19348 1.62705 5.81657
RightShoulder  1.75821 4.46888 15.2939
RightArm  -31.1199 52.4286 30.8197
RightForeArm  -43.849 29.2527 8.29277
RightHand  -2.96352 28.823 -10.4624
LeftUpLeg  -48.7461 1.56739 4.08059
LeftLeg  61.9119 -3.38318 -6.25186
LeftFoot  -12.3293 0.0777875 -0.268398
LeftToes  -7.16024e-010 4.79583e-011 -5.98286e-011
1244
root  46.275 30.8596 2.25031 150.41 86.2555 151.255
RightUpLeg  -47.2135 0.337 -10.1607
RightLeg  71.0701 1.98949 5.6346
RightFoot  -22.0119 0.0651459 2.29626
RightToes  6.35927e-011 1.30204e-014 -6.03759e-014
Spine  40.5258 -3.13033 12.0125
Spine1  -3.69141 3.01747 -13.1919
HEad  -54.9775 -4.43065 -1.71485
LeftShoulder1  3.51587 -9.6301 -20.3322
LeftArm  -22.3563 -45.2527 -46.3643
LeftForeArm  -25.2834 -45.0376 -12.723
LeftHand  -0.17726 1.05924 4.64642
RightShoulder  1.7864 3.7734 18.0164
RightArm  -25.2218 48.2965 33.5021
RightForeArm  -45.7014 36.1534 10.2908
RightHand  -2.78103 31.9036 -8.99534
LeftUpLeg  -50.6614 1.02428 4.67561
LeftLeg  65.3589 -2.93939 -6.3076
LeftFoot  -13.5283 0.078742 -0.296553
LeftToes  -7.16024e-010 4.79583e-011 -5.98286e-011
1245
root  46.2259 30.2163 2.44571 148.573 86.1918 148.718
RightUpLeg  -50.0227 0.265521 -10.1367
RightLeg  74.2066 1.66454 5.64953
RightFoot  -23.0299 0.0432279 1.94642
RightToes  6.35927e-011 1.30204e-014 -6.03759e-014
Spine  41.7512 -3.08131 11.9737
Spine1  -4.12608 3.1841 -13.4744
HEad  -54.9003 -4.74 -1.87736
LeftShoulder1  3.56292 -9.46795 -21.0892
LeftArm  -22.4542 -41.0519 -47.6342
LeftForeArm  -21.7417 -49.9526 -14.8429
LeftHand  -0.114847 0.886721 2.87225
RightShoulder  1.85069 3.4809 20.1438
RightArm  -26.6251 43.2174 35.0388
RightForeArm  -38.4813 46.9055 14.1999
RightHand  -2.67242 27.5905 -9.79639
LeftUpLeg  -53.4011 1.17711 4.99152
LeftLeg  68.1957 -2.64809 -6.52237
LeftFoot  -14.0697 0.0782655 -0.302866
LeftToes  -7.16024e-010 4.79583e-011 -5.98286e-011
1246
root  46.1001 29.6184 2.64738 148.936 85.8513 148.019
RightUpLeg  -53.1184 -0.254537 -10.1095
RightLeg  77.014 1.36628 5.60237
RightFoot  -23.5728 0.01869 1.66371
RightToes  6.35927e-011 1.30204e-014 -6.03759e-014
Spine  43.0464 -3.01451 11.8089
Spine1  -4.49248 3.30237 -13.3674
HEad  -55.2967 -4.88096 -2.40402
LeftShoulder1  3.43104 -9.15429 -20.706
LeftArm  -23.1916 -39.2499 -49.2074
LeftForeArm  -17.4456 -54.024 -16.8903
LeftHand  -0.0811415 0.674348 1.93342
RightShoulder  1.82737 3.05408 21.6227
RightArm  -26.3802 40.1587 36.9123
RightForeArm  -30.0254 55.0264 18.2141
RightHand  -3.15262 26.238 -11.9108
LeftUpLeg  -56.501 1.54526 5.12941
LeftLeg  70.4791 -2.56839 -7.19405
LeftFoot  -14.1164 0.0774704 -0.294016
LeftToes  -7.16024e-010 4.79583e-011 -5.98286e-011
1247
root  45.903 29.0608 2.83927 154.745 85.0233 153.154
RightUpLeg  -55.5641 -1.27013 -9.94275
RightLeg  79.4016 1.13291 5.63101
RightFoot  -23.9269 0.0261228 1.70683
RightToes  6.35927e-011 1.30204e-014 -6.03759e-014
Spine  44.8145 -3.08143 11.9741
Spine1  -5.16392 3.33779 -12.5591
HEad  -54.8276 -5.14699 -3.4851
LeftShoulder1  3.38518 -9.20464 -20.206
LeftArm  -23.2867 -39.7975 -49.4182
LeftForeArm  -15.4231 -55.2461 -17.5762
LeftHand  -0.105702 0.162743 2.33912
RightShoulder  1.74686 2.55876 22.6306
RightArm  -27.4152 38.9473 36.5256
RightForeArm  -29.1365 56.6448 19.4548
RightHand  -2.99728 29.1797 -10.4019
LeftUpLeg  -59.2701 1.56051 5.28657
LeftLeg  72.3872 -2.57354 -8.1406
LeftFoot  -13.9667 0.076603 -0.313908
LeftToes  -7.16024e-010 4.79583e-011 -5.98286e-011
1248
root  45.661 28.5501 2.99944 159.878 84.0723 157.947
RightUpLeg  -57.5406 -2.26696 -9.78258
RightLeg  81.4116 0.932156 5.60172
RightFoot  -24.198 0.0271012 1.69674
RightToes  6.35927e-011 1.30204e-014 -6.03759e-014
Spine  46.7508 -3.35246 12.3671
Spine1  -5.82729 3.26088 -11.711
HEad  -54.2449 -5.28233 -4.36561
LeftShoulder1  3.40335 -9.57698 -19.5402
LeftArm  -23.4669 -42.2431 -48.0905
LeftForeArm  -15.9207 -54.4388 -17.079
LeftHand  -0.149365 -0.206757 3.15387
RightShoulder  1.70564 2.39814 22.7307
RightArm  -29.6416 39.3798 34.4638
RightForeArm  -29.828 57.3254 20.0236
RightHand  -2.6455 30.3947 -8.94204
LeftUpLeg  -61.6003 1.30126 5.45215
LeftLeg  73.9667 -2.54561 -8.98443
LeftFoot  -13.7656 0.0725135 -0.47715
LeftToes  -7.16024e-010 4.79583e-011 -5.98286e-011
1249
root  45.422 28.0973 3.12875 160.81 83.5082 158.463
RightUpLeg  -59.6077 -2.81799 -9.79267
RightLeg  83.1825 0.74318 5.40849
RightFoot  -24.2603 -0.0195214 1.27887
RightToes  6.35927e-011 1.30204e-014 -6.03759e-014
Spine  48.4387 -3.67157 12.6005
Spine1  -6.40799 3.16884 -11.5958
HEad  -54.1562 -5.2169 -4.48565
LeftShoulder1  3.42826 -10.0287 -18.801
LeftArm  -24.5322 -45.4533 -46.6099
LeftForeArm  -16.6221 -53.6273 -16.6063
LeftHand  -0.152389 -0.237518 3.19496
RightShoulder  1.75551 2.6831 22.1694
RightArm  -32.916 40.7715 32.279
RightForeArm  -32.4074 56.4624 19.4937
RightHand  -1.9185 30.3881 -6.64586
LeftUpLeg  -63.7104 1.15217 5.51158
LeftLeg  75.2266 -2.45379 -9.50224
LeftFoot  -13.5009 0.0663841 -0.776556
LeftToes  -7.16024e-010 4.79583e-011 -5.98286e-011
